<?xml version="1.0" encoding="utf-8"?>
<!-- Generator: Adobe Illustrator 23.0.1, SVG Export Plug-In . SVG Version: 6.00 Build 0)  -->
<svg version="1.1" xmlns="http://www.w3.org/2000/svg" xmlns:xlink="http://www.w3.org/1999/xlink" x="0px" y="0px"
	 viewBox="0 0 841.89 595.28" style="enable-background:new 0 0 841.89 595.28;" xml:space="preserve">
<style type="text/css">
	.st0{fill:#D34848;}
	.st1{fill:url(#SVGID_1_);}
	.st2{fill:url(#SVGID_2_);}
	.st3{fill:url(#SVGID_3_);}
	.st4{fill:url(#SVGID_4_);}
	.st5{fill:url(#SVGID_5_);}
	.st6{fill:url(#SVGID_6_);}
	.st7{fill:url(#SVGID_7_);}
	.st8{fill:url(#SVGID_8_);}
	.st9{fill:url(#SVGID_9_);}
	.st10{fill:url(#SVGID_10_);}
	.st11{fill:url(#SVGID_11_);}
	.st12{fill:url(#SVGID_12_);}
	.st13{fill:url(#SVGID_13_);}
	.st14{fill:url(#SVGID_14_);}
	.st15{fill:none;stroke:#E89E0C;stroke-width:10;stroke-miterlimit:10;}
	.st16{fill:#FEDB64;}
	.st17{fill:#FFC82E;}
	.st18{fill:#E89E0C;}
</style>
<g id="Star">
	<rect x="-91.02" y="-127.74" class="st0" width="1025" height="783"/>
	<g>
		<radialGradient id="SVGID_1_" cx="327" cy="180.815" r="91.1495" gradientUnits="userSpaceOnUse">
			<stop  offset="0" style="stop-color:#FFFFFF"/>
			<stop  offset="0.4838" style="stop-color:#F0F0F0;stop-opacity:0.9324"/>
			<stop  offset="0.9866" style="stop-color:#FFFFFF;stop-opacity:0.0243"/>
			<stop  offset="1" style="stop-color:#FFFFFF;stop-opacity:0"/>
		</radialGradient>
		<path class="st1" d="M268.1,95.52l155.55,170.59l-193.3-130.09C241.33,121.1,254.01,107.5,268.1,95.52z"/>
		<radialGradient id="SVGID_2_" cx="305.51" cy="222.86" r="88.9596" gradientUnits="userSpaceOnUse">
			<stop  offset="0" style="stop-color:#FFFFFF"/>
			<stop  offset="0.4838" style="stop-color:#F0F0F0;stop-opacity:0.9324"/>
			<stop  offset="0.9866" style="stop-color:#FFFFFF;stop-opacity:0.0243"/>
			<stop  offset="1" style="stop-color:#FFFFFF;stop-opacity:0"/>
		</radialGradient>
		<path class="st2" d="M204.93,179.61l218.72,86.5l-236.28-27.98C190.71,217.62,196.69,198,204.93,179.61z"/>
		<radialGradient id="SVGID_3_" cx="304.115" cy="314.4" r="91.1607" gradientUnits="userSpaceOnUse">
			<stop  offset="0" style="stop-color:#FFFFFF"/>
			<stop  offset="0.4838" style="stop-color:#F0F0F0;stop-opacity:0.9324"/>
			<stop  offset="0.9866" style="stop-color:#FFFFFF;stop-opacity:0.0243"/>
			<stop  offset="1" style="stop-color:#FFFFFF;stop-opacity:0"/>
		</radialGradient>
		<path class="st3" d="M184.58,289.58l239.07-23.47l-223.41,96.58C191.37,339.82,185.94,315.24,184.58,289.58z"/>
		<radialGradient id="SVGID_4_" cx="324.135" cy="359.785" r="96.6391" gradientUnits="userSpaceOnUse">
			<stop  offset="0" style="stop-color:#FFFFFF"/>
			<stop  offset="0.4838" style="stop-color:#F0F0F0;stop-opacity:0.9324"/>
			<stop  offset="0.9866" style="stop-color:#FFFFFF;stop-opacity:0.0243"/>
			<stop  offset="1" style="stop-color:#FFFFFF;stop-opacity:0"/>
		</radialGradient>
		<path class="st4" d="M224.62,409.35l199.03-143.24L262.92,453.46C248.42,440.4,235.54,425.59,224.62,409.35z"/>
		<radialGradient id="SVGID_5_" cx="364.945" cy="385.93" r="94.3481" gradientUnits="userSpaceOnUse">
			<stop  offset="0" style="stop-color:#FFFFFF"/>
			<stop  offset="0.4838" style="stop-color:#F0F0F0;stop-opacity:0.9324"/>
			<stop  offset="0.9866" style="stop-color:#FFFFFF;stop-opacity:0.0243"/>
			<stop  offset="1" style="stop-color:#FFFFFF;stop-opacity:0"/>
		</radialGradient>
		<path class="st5" d="M306.24,484.49l117.41-218.38L357.8,505.75C339.64,500.67,322.36,493.49,306.24,484.49z"/>
		<radialGradient id="SVGID_6_" cx="438.96" cy="390.315" r="90.0803" gradientUnits="userSpaceOnUse">
			<stop  offset="0" style="stop-color:#FFFFFF"/>
			<stop  offset="0.4838" style="stop-color:#F0F0F0;stop-opacity:0.9324"/>
			<stop  offset="0.9866" style="stop-color:#FFFFFF;stop-opacity:0.0243"/>
			<stop  offset="1" style="stop-color:#FFFFFF;stop-opacity:0"/>
		</radialGradient>
		<path class="st6" d="M410.64,514.25l13.01-248.14l43.63,244.11c-14.66,2.82-29.8,4.3-45.28,4.3
			C418.19,514.52,414.41,514.43,410.64,514.25z"/>
		<radialGradient id="SVGID_7_" cx="493.855" cy="380.195" r="94.721" gradientUnits="userSpaceOnUse">
			<stop  offset="0" style="stop-color:#FFFFFF"/>
			<stop  offset="0.4838" style="stop-color:#F0F0F0;stop-opacity:0.9324"/>
			<stop  offset="0.9866" style="stop-color:#FFFFFF;stop-opacity:0.0243"/>
			<stop  offset="1" style="stop-color:#FFFFFF;stop-opacity:0"/>
		</radialGradient>
		<path class="st7" d="M518.14,494.28l-94.49-228.17l140.41,201.33C549.89,478.01,534.5,487.04,518.14,494.28z"/>
		<radialGradient id="SVGID_8_" cx="529.105" cy="348.785" r="94.7521" gradientUnits="userSpaceOnUse">
			<stop  offset="0" style="stop-color:#FFFFFF"/>
			<stop  offset="0.4838" style="stop-color:#F0F0F0;stop-opacity:0.9324"/>
			<stop  offset="0.9866" style="stop-color:#FFFFFF;stop-opacity:0.0243"/>
			<stop  offset="1" style="stop-color:#FFFFFF;stop-opacity:0"/>
		</radialGradient>
		<path class="st8" d="M602.55,431.46l-178.9-165.35L634.56,383.4C625.84,400.74,615.07,416.87,602.55,431.46z"/>
		<radialGradient id="SVGID_9_" cx="366.325" cy="157.265" r="86.9867" gradientUnits="userSpaceOnUse">
			<stop  offset="0" style="stop-color:#FFFFFF"/>
			<stop  offset="0.4838" style="stop-color:#F0F0F0;stop-opacity:0.9324"/>
			<stop  offset="0.9866" style="stop-color:#FFFFFF;stop-opacity:0.0243"/>
			<stop  offset="1" style="stop-color:#FFFFFF;stop-opacity:0"/>
		</radialGradient>
		<path class="st9" d="M355.54,48.42l68.11,217.69L309,67.52C323.65,59.59,339.23,53.15,355.54,48.42z"/>
		<radialGradient id="SVGID_10_" cx="429.85" cy="152.555" r="82.3812" gradientUnits="userSpaceOnUse">
			<stop  offset="0" style="stop-color:#FFFFFF"/>
			<stop  offset="0.4838" style="stop-color:#F0F0F0;stop-opacity:0.9324"/>
			<stop  offset="0.9866" style="stop-color:#FFFFFF;stop-opacity:0.0243"/>
			<stop  offset="1" style="stop-color:#FFFFFF;stop-opacity:0"/>
		</radialGradient>
		<path class="st10" d="M455.9,41.4l-32.25,224.71L403.8,39.68c6-0.45,12.07-0.68,18.2-0.68C433.51,39,444.83,39.82,455.9,41.4z"/>
		<radialGradient id="SVGID_11_" cx="486.325" cy="159.695" r="87.3279" gradientUnits="userSpaceOnUse">
			<stop  offset="0" style="stop-color:#FFFFFF"/>
			<stop  offset="0.4838" style="stop-color:#F0F0F0;stop-opacity:0.9324"/>
			<stop  offset="0.9866" style="stop-color:#FFFFFF;stop-opacity:0.0243"/>
			<stop  offset="1" style="stop-color:#FFFFFF;stop-opacity:0"/>
		</radialGradient>
		<path class="st11" d="M549,75.73L423.65,266.11l79.7-212.83C519.45,59.14,534.74,66.7,549,75.73z"/>
		<radialGradient id="SVGID_12_" cx="520.585" cy="186.155" r="88.8515" gradientUnits="userSpaceOnUse">
			<stop  offset="0" style="stop-color:#FFFFFF"/>
			<stop  offset="0.4838" style="stop-color:#F0F0F0;stop-opacity:0.9324"/>
			<stop  offset="0.9866" style="stop-color:#FFFFFF;stop-opacity:0.0243"/>
			<stop  offset="1" style="stop-color:#FFFFFF;stop-opacity:0"/>
		</radialGradient>
		<path class="st12" d="M617.52,141.43L423.65,266.11L587.64,106.2C598.7,116.93,608.71,128.73,617.52,141.43z"/>
		<radialGradient id="SVGID_13_" cx="539.9" cy="225.64" r="87.0399" gradientUnits="userSpaceOnUse">
			<stop  offset="0" style="stop-color:#FFFFFF"/>
			<stop  offset="0.4838" style="stop-color:#F0F0F0;stop-opacity:0.9324"/>
			<stop  offset="0.9866" style="stop-color:#FFFFFF;stop-opacity:0.0243"/>
			<stop  offset="1" style="stop-color:#FFFFFF;stop-opacity:0"/>
		</radialGradient>
		<path class="st13" d="M656.15,235.26l-232.5,30.85l217.83-80.94C648.12,201.06,653.08,217.84,656.15,235.26z"/>
		<radialGradient id="SVGID_14_" cx="541.62" cy="300.49" r="86.8876" gradientUnits="userSpaceOnUse">
			<stop  offset="0" style="stop-color:#FFFFFF"/>
			<stop  offset="0.4838" style="stop-color:#F0F0F0;stop-opacity:0.9324"/>
			<stop  offset="0.9866" style="stop-color:#FFFFFF;stop-opacity:0.0243"/>
			<stop  offset="1" style="stop-color:#FFFFFF;stop-opacity:0"/>
		</radialGradient>
		<path class="st14" d="M659.59,285.94c-0.64,16.82-3.03,33.19-6.98,48.93l-228.96-68.76L659.59,285.94z"/>
	</g>
	<path class="st15" d="M584.7,234.01c-0.32,0.4-0.7,0.78-1.12,1.15c-0.73,0.65-1.47,1.29-2.2,1.94
		c-6.66,5.86-13.3,11.76-19.97,17.61c-16.32,14.31-32.65,28.61-48.97,42.91c-0.3,0.26-0.55,0.62-0.89,0.8
		c-3.34,1.8-5.31,3.92-6.32,6.37c-1.46,3.51-0.96,7.69,0.23,12.57c7.36,30.07,13.9,60.33,20.68,90.54c0.42,1.9,1.08,3.81,0.64,5.89
		c-1.07,5.13-5.19,7.95-9.88,7.02h-0.01c-1.1-0.21-2.23-0.63-3.36-1.27c-1.94-1.1-3.87-2.21-5.79-3.33
		c-0.01-0.01-0.02-0.02-0.03-0.02c-8.89-5.16-17.69-10.46-26.53-15.71c-18.89-11.22-37.78-22.43-56.61-33.74
		c-1.34-0.81-2.48-1.06-3.63-0.87c-0.83,0.14-1.66,0.5-2.57,1.05c-24.68,14.76-49.42,29.43-74.14,44.11
		c-0.8,0.48-1.68,0.81-2.52,1.21c-3.95,3.19-8.46,5.5-12.88,7.91c-3.16,1.72-6.46,1.52-9.3-0.9c-1.86-1.59-2.95-3.4-3.24-5.55
		c-0.16-1.14-0.09-2.38,0.22-3.72c7.46-32.87,14.73-65.79,22.32-98.63c0.34-1.49,0.46-2.75,0.32-3.87
		c-0.24-2.03-1.33-3.64-3.44-5.46c-18.59-15.98-36.9-32.27-55.31-48.46c-6.7-5.89-13.42-11.78-20.11-17.69
		c-2.96-2.62-4.82-5.66-3.49-9.84c0.4-1.24,0.94-2.28,1.63-3.11c1.55-1.9,3.81-2.83,6.7-3.09c1.17-0.1,2.33-0.21,3.5-0.32
		c12.33-1.1,24.66-2.33,36.99-3.5c12.97-1.24,25.93-2.51,38.9-3.72c7.41-0.68,14.83-1.37,22.25-1.85c1.58-0.1,2.83-0.42,3.83-1.15
		c0.89-0.63,1.6-1.58,2.18-2.96c13.29-31.2,26.73-62.33,40.12-93.49c1.64-3.79,4.04-6.55,8.59-6.6c4.33-0.05,6.93,2.34,8.54,6.04
		c4.81,11.1,9.57,22.23,14.32,33.36c0.31,0.72,0.4,1.53,0.6,2.3c5.54,12.66,11.11,25.31,16.63,37.98
		c3.09,7.08,6.19,14.15,9.14,21.28c0.38,0.93,0.83,1.6,1.4,2.09c0.83,0.72,1.9,1.05,3.37,1.17c16.28,1.4,32.55,3.04,48.83,4.54
		c15.76,1.45,31.52,2.81,47.28,4.23c2.64,0.24,5.32,0.4,7.92,0.88c3.19,0.6,5.83,2.28,6.68,5.58
		C586.99,228.73,586.68,231.61,584.7,234.01z"/>
	<path class="st16" d="M584.7,234.01c-0.32,0.4-0.7,0.78-1.12,1.15c-0.73,0.65-1.47,1.29-2.2,1.94
		c-6.66,5.86-13.3,11.76-19.97,17.61c-16.32,14.31-32.65,28.61-48.97,42.91c-0.3,0.26-0.55,0.62-0.89,0.8
		c-3.34,1.8-5.31,3.92-6.32,6.37c-1.46,3.51-0.96,7.69,0.23,12.57c7.36,30.07,13.9,60.33,20.68,90.54c0.42,1.9,1.08,3.81,0.64,5.89
		c-1.07,5.13-5.19,7.95-9.88,7.02h-0.01c-1.1-0.21-2.23-0.63-3.36-1.27c-1.94-1.1-3.87-2.21-5.79-3.33
		c-0.01-0.01-0.02-0.02-0.03-0.02c-8.89-5.16-17.69-10.46-26.53-15.71c-18.89-11.22-37.78-22.43-56.61-33.74
		c-1.34-0.81-2.48-1.06-3.63-0.87c-0.83,0.14-1.66,0.5-2.57,1.05c-24.68,14.76-49.42,29.43-74.14,44.11
		c-0.8,0.48-1.68,0.81-2.52,1.21c-3.95,3.19-8.46,5.5-12.88,7.91c-3.16,1.72-6.46,1.52-9.3-0.9c-1.86-1.59-2.95-3.4-3.24-5.55
		c-0.16-1.14-0.09-2.38,0.22-3.72c7.46-32.87,14.73-65.79,22.32-98.63c0.34-1.49,0.46-2.75,0.32-3.87
		c-0.24-2.03-1.33-3.64-3.44-5.46c-18.59-15.98-36.9-32.27-55.31-48.46c-6.7-5.89-13.42-11.78-20.11-17.69
		c-2.96-2.62-4.82-5.66-3.49-9.84c0.4-1.24,0.94-2.28,1.63-3.11c1.55-1.9,3.81-2.83,6.7-3.09c1.17-0.1,2.33-0.21,3.5-0.32
		c12.33-1.1,24.66-2.33,36.99-3.5c12.97-1.24,25.93-2.51,38.9-3.72c7.41-0.68,14.83-1.37,22.25-1.85c1.58-0.1,2.83-0.42,3.83-1.15
		c0.89-0.63,1.6-1.58,2.18-2.96c13.29-31.2,26.73-62.33,40.12-93.49c1.64-3.79,4.04-6.55,8.59-6.6c4.33-0.05,6.93,2.34,8.54,6.04
		c4.81,11.1,9.57,22.23,14.32,33.36c0.31,0.72,0.4,1.53,0.6,2.3c5.54,12.66,11.11,25.31,16.63,37.98
		c3.09,7.08,6.19,14.15,9.14,21.28c0.38,0.93,0.83,1.6,1.4,2.09c0.83,0.72,1.9,1.05,3.37,1.17c16.28,1.4,32.55,3.04,48.83,4.54
		c15.76,1.45,31.52,2.81,47.28,4.23c2.64,0.24,5.32,0.4,7.92,0.88c3.19,0.6,5.83,2.28,6.68,5.58
		C586.99,228.73,586.68,231.61,584.7,234.01z"/>
	<path class="st17" d="M422,263.76l-1.06,102.11c-0.83,0.14-1.66,0.5-2.57,1.05c-24.68,14.76-49.42,29.43-74.14,44.11
		c-0.8,0.48-1.68,0.81-2.52,1.21c-3.95,3.19-8.46,5.5-12.88,7.91c-3.16,1.72-6.46,1.52-9.3-0.9c-1.86-1.59-2.95-3.4-3.24-5.55
		C316.29,382.39,422,263.76,422,263.76z"/>
	<path class="st17" d="M526.78,413.79c-1.07,5.13-5.19,7.95-9.88,7.02h-0.01c-1.07-0.32-2.19-0.74-3.36-1.27
		c-1.91-0.86-3.84-1.98-5.79-3.33c-0.01-0.01-0.02-0.02-0.03-0.02C467.93,388.51,422,263.76,422,263.76l83.23,41.03
		c-1.46,3.51-0.96,7.69,0.23,12.57c7.36,30.07,13.9,60.33,20.68,90.54C526.56,409.8,527.22,411.71,526.78,413.79z"/>
	<path class="st17" d="M584.7,234.01c-0.36,0.38-0.74,0.77-1.12,1.15c-0.66,0.66-1.4,1.31-2.2,1.94
		C550.91,261.09,422,263.76,422,263.76l50.12-54.47c0.83,0.72,1.9,1.05,3.37,1.17c16.28,1.4,32.55,3.04,48.83,4.54
		c15.76,1.45,31.52,2.81,47.28,4.23c2.64,0.24,5.32,0.4,7.92,0.88c3.19,0.6,5.83,2.28,6.68,5.58
		C586.99,228.73,586.68,231.61,584.7,234.01z"/>
	<path class="st17" d="M422,263.76l-51.4-54.47c0.89-0.63,1.6-1.58,2.18-2.96c13.29-31.2,26.73-62.33,40.12-93.49
		c1.64-3.79,4.04-6.55,8.59-6.6c4.33-0.05,6.93,2.34,8.54,6.04C447.06,151.56,422,263.76,422,263.76z"/>
	<path class="st17" d="M422,263.76l-82.85,43.72c-0.24-2.03-1.33-3.64-3.44-5.46c-18.59-15.98-36.9-32.27-55.31-48.46
		c-6.7-5.89-13.42-11.78-20.11-17.69c-2.96-2.62-4.82-5.66-3.49-9.84c0.4-1.24,0.94-2.28,1.63-3.11c1.83-1.43,4.04-2.5,6.7-3.09
		c0.95-0.2,2.12-0.31,3.5-0.32C298.13,219.41,422,263.76,422,263.76z"/>
</g>
<g id="Likes">
	<g>
		<g>
			<path class="st16" d="M339.13,172.59c-1.58,0-2.78-0.97-3.55-1.7c-0.98-0.94-1.98-1.85-2.98-2.77c-1.43-1.31-2.92-2.67-4.33-4.08
				c-3.64-3.63-7.39-7.27-11.02-10.79c-8.9-8.63-18.11-17.55-26.39-27.13c-3.1-3.6-4.3-6.49-4.28-10.32
				c0.02-4.36,1.91-8.41,5.2-11.24v-0.02l0.97-0.76h0.01c1.47-1.08,3.12-1.88,4.89-2.38c1.19-0.34,2.42-0.52,3.66-0.52
				c5.1,0,10.07,2.98,12.96,7.77c7.26,12.02,13.31,24.87,19.16,37.29c2.03,4.31,4.13,8.77,6.25,13.12c0.46,0.95,0.91,1.9,1.35,2.85
				c0.57,1.21,1.14,2.43,1.73,3.63c0.48,0.97,1.95,3.93-1.02,6.11C340.91,172.27,340.03,172.59,339.13,172.59z"/>
			<path class="st18" d="M301.32,102.37c4.54,0,9,2.61,11.68,7.05c9.73,16.12,17.13,33.41,25.34,50.29
				c1.04,2.15,2.03,4.34,3.09,6.49c0.78,1.57,1.1,3.02-0.56,4.24c-0.62,0.45-1.19,0.65-1.74,0.65c-0.89,0-1.71-0.52-2.51-1.29
				c-2.41-2.3-4.93-4.48-7.29-6.83c-12.54-12.52-25.72-24.41-37.34-37.84c-2.85-3.31-3.93-5.87-3.91-9.33
				c0.02-4.21,1.98-8.03,5.19-10.53c0,0,0.01,0,0.01-0.01c1.38-1.08,3-1.92,4.79-2.43C299.14,102.52,300.23,102.37,301.32,102.37
				 M301.32,99.37L301.32,99.37c-1.38,0-2.75,0.19-4.08,0.57c-1.78,0.51-3.44,1.29-4.95,2.32h-0.05l-0.58,0.45
				c-0.08,0.06-0.15,0.11-0.22,0.17l-1.15,0.9v0.08c-3.3,3.08-5.18,7.34-5.2,11.9c-0.02,4.17,1.32,7.45,4.64,11.3
				c8.33,9.63,17.56,18.58,26.48,27.23c3.63,3.52,7.38,7.15,11.01,10.78c1.44,1.43,2.93,2.8,4.38,4.12c0.98,0.9,2,1.83,2.96,2.75
				c0.55,0.52,2.22,2.12,4.58,2.12c1.22,0,2.4-0.41,3.52-1.23c1.82-1.33,3.55-3.81,1.47-7.99c-0.58-1.18-1.16-2.41-1.72-3.6
				c-0.45-0.96-0.9-1.91-1.36-2.86c-2.11-4.35-4.21-8.8-6.24-13.11c-5.87-12.46-11.94-25.34-19.23-37.43
				C312.4,102.63,306.94,99.37,301.32,99.37L301.32,99.37z"/>
		</g>
		<path class="st17" d="M340.87,170.44c0.79-0.79-41.05-69.45-47.59-65.18c1.38-1.08,3-1.92,4.79-2.43
			c5.56-1.6,11.61,1.09,14.93,6.59c9.73,16.12,17.13,33.41,25.34,50.29c1.04,2.15,2.03,4.34,3.09,6.49
			C342.21,167.77,342.53,169.22,340.87,170.44z"/>
	</g>
	<g>
		<g>
			<path class="st16" d="M229.72,357.48c-5.47,0-9.88-2.99-12.75-8.64c-0.29-0.54-0.57-1.14-0.83-1.77l0,0
				c-0.01,0-0.08-0.06-0.15-0.13c-0.12-0.12-0.24-0.25-0.35-0.38l-0.35-0.42v-7.25l0.12-0.28c4.09-9.67,12.94-11.06,20.75-12.29
				c0.75-0.12,1.5-0.24,2.25-0.36c11.72-1.95,23.68-3.63,35.25-5.25c4.66-0.65,9.31-1.31,13.97-1.98c0.73-0.11,1.46-0.14,2.15-0.16
				c0.26-0.01,0.51-0.02,0.77-0.03c0.25-0.01,0.49-0.02,0.73-0.02c2.55,0,4.07,1.14,4.5,3.38c0.65,3.34-2.03,4.78-3.04,5.32
				c-4.1,2.19-8.18,4.39-12.25,6.6c-6.68,3.62-13.59,7.36-20.44,10.93l-0.39,0.21c-7.19,3.75-14.63,7.63-22.29,10.83
				C234.66,356.91,232.09,357.48,229.72,357.48z"/>
			<path class="st18" d="M291.28,320.02c1.43,0,2.68,0.35,3.02,2.16c0.37,1.91-0.72,2.88-2.28,3.72
				c-10.9,5.82-21.72,11.81-32.68,17.52c-7.42,3.87-14.83,7.75-22.57,10.98c-2.52,1.05-4.88,1.58-7.05,1.58
				c-4.86,0-8.77-2.62-11.41-7.82c-0.28-0.53-0.54-1.09-0.78-1.67c-0.14-0.34-0.48-0.59-0.73-0.89v-6.4
				c4.13-9.77,13.42-10.34,21.86-11.75c16.34-2.72,32.78-4.86,49.18-7.23c0.92-0.14,1.86-0.13,2.79-0.18
				C290.85,320.03,291.06,320.02,291.28,320.02 M291.28,317.02L291.28,317.02c-0.26,0-0.53,0.01-0.81,0.02
				c-0.25,0.01-0.5,0.02-0.75,0.03c-0.71,0.02-1.51,0.05-2.34,0.18c-4.63,0.67-9.29,1.32-13.94,1.98
				c-11.57,1.63-23.54,3.31-35.28,5.26c-0.74,0.12-1.48,0.24-2.23,0.36c-8.2,1.29-17.48,2.74-21.9,13.18l-0.24,0.56v0.61v6.4v1.09
				l0.7,0.83c0.12,0.15,0.26,0.29,0.4,0.43c0.24,0.56,0.49,1.09,0.75,1.59c3.96,7.8,9.84,9.44,14.07,9.44
				c2.58,0,5.34-0.61,8.21-1.81c7.71-3.22,15.18-7.11,22.39-10.88l0.41-0.21c6.87-3.58,13.79-7.33,20.49-10.95
				c4-2.17,8.14-4.41,12.22-6.58c3.1-1.67,4.38-4,3.81-6.94C296.92,319.9,295.7,317.02,291.28,317.02L291.28,317.02z"/>
		</g>
		<path class="st17" d="M294.3,322.18c-0.7-1.45-78.91,15.68-75.99,25.98c-0.28-0.53-0.54-1.09-0.78-1.67
			c-0.14-0.34-0.48-0.59-0.73-0.89v-6.4c4.13-9.77,13.42-10.34,21.86-11.75c16.34-2.72,32.78-4.86,49.18-7.23
			c0.92-0.14,1.86-0.13,2.79-0.18C292.32,319.95,293.9,320.1,294.3,322.18z"/>
	</g>
	<g>
		<g>
			<path class="st16" d="M422,495.82c-4.09,0-7.8-1.51-10.44-4.26c-2.86-2.98-4.34-7.23-4.15-11.97c0.13-3.52,0.61-7.04,1.06-10.45
				l0.21-1.56c1.45-11.17,3.53-22.41,5.54-33.27c0.96-5.19,1.95-10.55,2.86-15.83c0.05-0.3,0.09-0.61,0.13-0.93
				c0.22-1.83,0.64-5.24,4.66-5.35l0.19,0c3.97,0,4.43,3.37,4.68,5.18c0.04,0.32,0.08,0.63,0.14,0.92
				c1.13,5.89,2.19,11.9,3.23,17.71c0.41,2.33,0.83,4.66,1.25,6.98c2,11.2,4.27,23.88,5.24,34.88c0.14,5.93-1.43,10.71-4.54,13.92
				c-2.54,2.62-5.98,4.01-9.94,4.03H422z"/>
			<path class="st18" d="M422.07,413.7c3.16,0,2.96,2.85,3.34,4.88c1.57,8.21,2.99,16.45,4.47,24.68
				c2.15,12.02,4.28,24.04,5.22,34.74c0.24,10.22-5.09,16.28-13,16.32c-0.03,0-0.07,0-0.1,0c-7.91,0-13.43-6.06-13.09-14.67
				c0.15-3.97,0.74-7.93,1.26-11.87c2.14-16.46,5.58-32.69,8.4-49.04c0.36-2.07,0.12-4.95,3.35-5.04
				C421.97,413.7,422.02,413.7,422.07,413.7 M422.07,410.7c-0.08,0-0.15,0-0.23,0c-5.31,0.15-5.89,4.89-6.11,6.67
				c-0.04,0.29-0.07,0.58-0.12,0.86c-0.91,5.28-1.9,10.63-2.86,15.81c-2.02,10.88-4.1,22.14-5.56,33.35l-0.21,1.55
				c-0.46,3.44-0.94,7-1.08,10.59c-0.2,5.15,1.42,9.79,4.57,13.06c2.93,3.05,7.02,4.72,11.52,4.72l0.12,0
				c4.37-0.02,8.18-1.57,11.01-4.49c3.4-3.5,5.12-8.65,4.97-14.9l0-0.1l-0.01-0.1c-0.97-11.05-3.25-23.78-5.26-35.01
				c-0.42-2.34-0.84-4.68-1.25-7.02c-1.03-5.8-2.1-11.8-3.22-17.7c-0.05-0.26-0.09-0.55-0.13-0.84
				C427.99,415.41,427.35,410.7,422.07,410.7L422.07,410.7z"/>
		</g>
		<path class="st17" d="M422.1,494.32c-7.96,0.05-13.53-6.02-13.19-14.67c0.15-3.97,0.74-7.93,1.26-11.87
			c2.14-16.46,5.58-32.69,8.4-49.04c0.36-2.07,0.12-4.95,3.35-5.04C419.83,413.7,413.86,494.32,422.1,494.32z"/>
	</g>
	<g>
		<g>
			<path class="st16" d="M610.98,357.46l-0.07-0.01c-3.69-0.34-7.85-2.51-12.26-4.81c-0.59-0.31-1.18-0.62-1.77-0.92
				c-10.96-5.62-22-11.51-32.67-17.21c-4.29-2.29-8.58-4.58-12.88-6.87c-0.13-0.07-0.28-0.15-0.42-0.23
				c-0.17-0.1-0.35-0.2-0.53-0.28c-2.38-1.02-3.44-2.96-2.92-5.34v-0.02l0.05-0.21c0.3-1.14,1.23-3.06,4.15-3.06
				c0.31,0,0.63,0.02,0.95,0.06c3.88,0.45,8.46,1.01,13.08,1.66c3.12,0.43,6.24,0.85,9.36,1.27c13.53,1.81,27.51,3.68,41.08,6.88
				c7.55,1.77,12.65,8.86,11.61,16.15c-0.1,0.72-0.25,1.45-0.47,2.23l-0.09,0.31c-0.05,0.19-0.1,0.32-0.15,0.45
				c-2.17,6.33-7.95,9.95-15.87,9.95H610.98z"/>
			<path class="st18" d="M551.65,320c0.25,0,0.51,0.02,0.78,0.05c4.35,0.51,8.7,1.04,13.04,1.65c16.83,2.34,33.74,4.22,50.31,8.12
				c6.88,1.61,11.39,8.01,10.47,14.48c-0.1,0.71-0.25,1.39-0.43,2.05c-0.03,0.11-0.07,0.22-0.1,0.34c-0.03,0.1-0.06,0.19-0.1,0.28
				c-1.85,5.48-6.9,8.99-14.47,8.99c-0.03,0-0.06,0-0.1,0c-3.88-0.36-8.7-3.11-13.48-5.57c-15.28-7.83-30.37-16.02-45.54-24.07
				c-0.35-0.18-0.69-0.4-1.06-0.56c-1.7-0.73-2.47-1.98-2.02-3.79v-0.03C549.34,320.43,550.42,320,551.65,320 M551.65,317
				L551.65,317c-2.83,0-4.93,1.57-5.61,4.19l-0.1,0.37v0.09c-0.57,2.99,0.87,5.59,3.84,6.87c0.08,0.04,0.23,0.12,0.38,0.21
				c0.16,0.09,0.32,0.18,0.49,0.27c4.27,2.26,8.56,4.56,12.86,6.85c10.68,5.7,21.72,11.6,32.69,17.22c0.58,0.3,1.17,0.61,1.76,0.91
				c4.54,2.37,8.82,4.6,12.81,4.97l0.13,0.01l0.13,0l0.11,0c8.46,0,14.91-4.08,17.28-10.93c0.08-0.19,0.13-0.35,0.17-0.48l0.02-0.07
				l0.02-0.07l0.01-0.03c0.03-0.08,0.05-0.16,0.07-0.25c0.23-0.85,0.4-1.64,0.51-2.42c1.14-8.05-4.46-15.88-12.76-17.82
				c-13.63-3.21-27.66-5.09-41.22-6.9c-3.12-0.42-6.24-0.84-9.36-1.27c-4.61-0.65-9.21-1.2-13.1-1.66
				C552.38,317.02,552.01,317,551.65,317L551.65,317z"/>
		</g>
		<path class="st17" d="M625.62,346.97c-1.86,5.5-6.94,9.02-14.57,8.99c-3.88-0.36-8.7-3.11-13.48-5.57
			c-15.28-7.83-30.37-16.02-45.54-24.07c-0.35-0.18-0.69-0.4-1.06-0.56c-1.7-0.73-2.47-1.98-2.02-3.79
			C548.95,324.29,621.28,357.11,625.62,346.97z"/>
	</g>
	<g>
		<g>
			<path class="st16" d="M504.07,172.6c-0.85,0-1.69-0.29-2.5-0.86c-2.08-1.44-2.48-3.49-1.19-6.09c2.7-5.51,5.35-11.16,7.92-16.63
				c6.29-13.41,12.8-27.27,20.55-40.27c3.01-5.07,7.45-7.63,13.56-7.84l0.1,0l0.1,0.01c2.62,0.26,4.92,0.96,6.83,2.09l0.17,0.1
				l0.04,0.04c0.06,0.03,0.11,0.07,0.18,0.1c0.21,0.13,0.34,0.21,0.46,0.3c1.98,1.34,3.6,3.28,4.76,5.72c2.73,5.8,2,11.38-2.1,16.13
				c-9.38,10.86-19.84,20.96-29.95,30.72c-2.97,2.87-5.94,5.73-8.88,8.62c-1.18,1.16-2.39,2.28-3.59,3.41
				c-0.94,0.87-1.87,1.75-2.8,2.63C506.84,171.63,505.65,172.6,504.07,172.6z"/>
			<path class="st18" d="M542.45,102.41c2.22,0.22,4.35,0.79,6.21,1.89c0.02,0.02,0.03,0.03,0.05,0.04c0.12,0.08,0.25,0.16,0.4,0.24
				c0.1,0.06,0.19,0.12,0.27,0.18c1.74,1.18,3.21,2.86,4.3,5.16c2.47,5.25,1.88,10.15-1.88,14.51
				c-12.04,13.94-25.62,26.38-38.75,39.25c-2.09,2.05-4.27,4-6.38,6.03c-0.82,0.79-1.66,1.39-2.6,1.39c-0.51,0-1.05-0.17-1.64-0.59
				c-1.66-1.15-1.51-2.58-0.71-4.2c9.31-19.01,17.54-38.56,28.41-56.79C532.8,105.03,536.61,102.61,542.45,102.41 M542.55,99.4
				l-0.2,0.01c-6.66,0.23-11.5,3.03-14.8,8.57c-7.79,13.06-14.31,26.96-20.62,40.4c-2.56,5.46-5.21,11.11-7.91,16.6
				c-2.26,4.58,0.43,7.11,1.7,7.99c1.06,0.74,2.19,1.12,3.35,1.12c2.14,0,3.7-1.27,4.69-2.23c0.91-0.88,1.85-1.75,2.78-2.62
				c1.19-1.11,2.42-2.26,3.62-3.43c2.94-2.88,5.95-5.79,8.87-8.61c10.14-9.79,20.62-19.91,30.05-30.82
				c4.52-5.24,5.32-11.38,2.32-17.75c-1.27-2.67-3.04-4.8-5.28-6.33c-0.14-0.1-0.29-0.2-0.46-0.3l-0.07-0.04l-0.04-0.02l-0.04-0.04
				l-0.33-0.2c-2.1-1.24-4.6-2.01-7.44-2.29L542.55,99.4L542.55,99.4z"/>
		</g>
		<path class="st17" d="M551.8,124.43c-12.04,13.94-25.62,26.38-38.75,39.25c-2.09,2.05-4.27,4-6.38,6.03
			c-1.26,1.22-2.57,1.97-4.24,0.8c1.35,1.36,55.2-59.28,46.95-65.75c1.74,1.18,3.21,2.86,4.3,5.16
			C556.15,115.17,555.56,120.07,551.8,124.43z"/>
	</g>
</g>
</svg>
